<svg width="100" height="30" xmlns="http://www.w3.org/2000/svg">

 <g>
  <title>background</title>
  <rect fill="none" id="canvas_background" height="402" width="582" y="-1" x="-1"/>
 </g>
 <g>
  <title>Layer 1</title>
  <path id="svg_1" fill="#ffffff" d="m1.97869,20l-1.63068,0l3.66406,-10.18182l1.77486,0l3.66406,10.18182l-1.63068,0l-2.87855,-8.3324l-0.07954,0l-2.88353,8.3324zm0.27344,-3.9872l5.28977,0l0,1.2926l-5.28977,0l0,-1.2926zm8.54987,3.9872l0,-7.6364l1.4865,0l0,3.2017l0.7159,0l2.5206,-3.2017l1.8395,0l-2.9581,3.7138l2.9929,3.9226l-1.8444,0l-2.3019,-3.0526l-0.9645,0l0,3.0526l-1.4865,0zm7.752,0l0,-7.6364l1.4865,0l0,3.2017l0.7159,0l2.5206,-3.2017l1.8395,0l-2.9581,3.7138l2.9929,3.9226l-1.8445,0l-2.3018,-3.0526l-0.9645,0l0,3.0526l-1.4865,0zm9.9742,0.169c-0.4839,0 -0.9214,-0.0895 -1.3125,-0.2684c-0.3911,-0.1823 -0.701,-0.4458 -0.9297,-0.7905c-0.2253,-0.3447 -0.338,-0.7673 -0.338,-1.2678c0,-0.4308 0.0828,-0.7855 0.2486,-1.0639c0.1657,-0.2784 0.3894,-0.4988 0.6711,-0.6612c0.2817,-0.1624 0.5966,-0.2851 0.9446,-0.3679c0.348,-0.0829 0.7027,-0.1458 1.0639,-0.1889c0.4574,-0.0531 0.8286,-0.0961 1.1137,-0.1293c0.285,-0.0365 0.4922,-0.0945 0.6214,-0.174c0.1293,-0.0795 0.1939,-0.2088 0.1939,-0.3878l0,-0.0348c0,-0.4342 -0.1226,-0.7706 -0.3679,-1.0092c-0.2419,-0.2387 -0.6032,-0.358 -1.0838,-0.358c-0.5005,0 -0.8949,0.1111 -1.1832,0.3331c-0.2851,0.2188 -0.4823,0.4624 -0.5916,0.7308l-1.3971,-0.3181c0.1658,-0.464 0.4077,-0.8386 0.7259,-1.1236c0.3215,-0.2884 0.691,-0.4972 1.1087,-0.6264c0.4176,-0.1326 0.8567,-0.1989 1.3174,-0.1989c0.305,0 0.6281,0.0365 0.9695,0.1094c0.3447,0.0696 0.6662,0.1988 0.9645,0.3878c0.3016,0.1889 0.5485,0.459 0.7407,0.8103c0.1923,0.348 0.2884,0.8005 0.2884,1.3573l0,5.071l-1.4517,0l0,-1.044l-0.0597,0c-0.0961,0.1922 -0.2403,0.3811 -0.4325,0.5667c-0.1922,0.1856 -0.4392,0.3398 -0.7408,0.4624c-0.3016,0.1226 -0.6628,0.1839 -1.0838,0.1839zm0.3232,-1.1931c0.411,0 0.7623,-0.0813 1.054,-0.2437c0.2949,-0.1624 0.5187,-0.3745 0.6711,-0.6363c0.1558,-0.2652 0.2337,-0.5486 0.2337,-0.8502l0,-0.9843c-0.053,0.053 -0.1558,0.1027 -0.3082,0.1491c-0.1492,0.0431 -0.3199,0.0812 -0.5121,0.1144c-0.1923,0.0298 -0.3795,0.058 -0.5618,0.0845c-0.1823,0.0232 -0.3348,0.0431 -0.4574,0.0596c-0.2883,0.0365 -0.5518,0.0978 -0.7905,0.184c-0.2353,0.0862 -0.4242,0.2104 -0.5667,0.3729c-0.1392,0.159 -0.2088,0.3712 -0.2088,0.6363c0,0.3679 0.1358,0.6463 0.4076,0.8352c0.2718,0.1856 0.6182,0.2785 1.0391,0.2785zm6.0914,3.8877c-0.222,0 -0.4242,-0.0182 -0.6065,-0.0547c-0.1823,-0.0331 -0.3182,-0.0696 -0.4077,-0.1093l0.358,-1.2181c0.2718,0.073 0.5137,0.1044 0.7258,0.0945c0.2122,-0.0099 0.3994,-0.0895 0.5618,-0.2386c0.1657,-0.1492 0.3116,-0.3928 0.4375,-0.7309l0.184,-0.5071l-2.7941,-7.7358l1.5909,0l1.934,5.9262l0.0795,0l1.934,-5.9262l1.5959,0l-3.1471,8.6556c-0.1458,0.3977 -0.3314,0.7341 -0.5568,1.0092c-0.2253,0.2784 -0.4938,0.4872 -0.8054,0.6264c-0.3115,0.1392 -0.6728,0.2088 -1.0838,0.2088zm12.1655,-7.3231l0,1.2876l-4.1364,0l0,-1.2876l4.1364,0zm-3.7187,-3.1769l0,7.6364l-1.4567,0l0,-7.6364l1.4567,0zm4.7578,0l0,7.6364l-1.4517,0l0,-7.6364l1.4517,0zm1.0415,1.2827l0,-1.2827l6.4432,0l0,1.2827l-2.4908,0l0,6.3537l-1.4517,0l0,-6.3537l-2.5007,0z"/>
  <path id="svg_3" fill="#ffffff" d="m89.5,12c0,1.3807 -1.1193,2.5 -2.5,2.5c-1.3807,0 -2.5,-1.1193 -2.5,-2.5c0,-1.3807 1.1193,-2.5 2.5,-2.5c1.3807,0 2.5,1.1193 2.5,2.5zm1.5,0c0,2.2091 -1.7909,4 -4,4c-2.2091,0 -4,-1.7909 -4,-4c0,-2.20914 1.7909,-4 4,-4c2.2091,0 4,1.79086 4,4zm-6,5.25c-2.0711,0 -3.75,1.6789 -3.75,3.75l0,1l1.5,0l0,-1c0,-1.2426 1.0074,-2.25 2.25,-2.25l4,0c1.2426,0 2.25,1.0074 2.25,2.25l0,1l1.5,0l0,-1c0,-2.0711 -1.6789,-3.75 -3.75,-3.75l-4,0z" clip-rule="evenodd" fill-rule="evenodd"/>
 </g>
</svg>